<?xml version="1.0" standalone="no"?>
<!DOCTYPE svg PUBLIC "-//W3C//DTD SVG 20010904//EN"
 "http://www.w3.org/TR/2001/REC-SVG-20010904/DTD/svg10.dtd">
<svg version="1.0" xmlns="http://www.w3.org/2000/svg"
 width="512.000000pt" height="512.000000pt" viewBox="0 0 512.000000 512.000000"
 preserveAspectRatio="xMidYMid meet">
<metadata>
Created by potrace 1.14, written by Peter Selinger 2001-2017
</metadata>
<g transform="translate(0.000000,512.000000) scale(0.100000,-0.100000)"
fill="#000000" stroke="none">
<path d="M450 3653 l-70 -172 139 -272 139 -273 438 -173 439 -173 130 52 c72
28 147 59 167 70 42 20 45 18 58 -49 5 -26 12 -59 15 -73 3 -14 7 -36 10 -50
2 -14 9 -50 15 -80 6 -30 13 -82 15 -115 4 -50 20 -165 41 -300 2 -16 6 -43 8
-60 3 -16 7 -53 11 -82 6 -38 44 -126 144 -325 l137 -273 272 -3 272 -2 140
282 c123 250 140 291 146 348 3 36 7 67 9 70 2 3 6 30 10 60 3 30 8 62 10 70
3 8 7 38 10 65 2 28 7 61 10 75 3 14 6 41 6 60 0 31 9 97 24 170 3 14 7 37 10
53 10 54 36 171 38 173 1 1 77 -30 168 -68 l166 -69 194 76 c107 42 306 120
442 173 l248 97 124 245 c68 135 130 258 138 273 14 27 12 35 -49 183 -34 85
-67 162 -73 171 -7 14 -23 17 -74 18 -73 0 -72 4 -24 -92 l25 -48 -99 -130
c-54 -71 -101 -129 -104 -128 -4 1 -36 44 -71 95 l-64 93 -65 1 c-75 1 -74 2
-29 -87 l23 -47 -97 -130 c-53 -72 -100 -131 -103 -132 -4 0 -35 27 -70 60
l-64 59 -70 1 -69 0 64 -65 c35 -35 62 -66 59 -68 -2 -2 -89 -62 -193 -132
-218 -147 -246 -160 -214 -102 10 18 20 237 11 237 -3 0 -177 -112 -357 -229
l-120 -78 -32 19 c-29 17 -52 18 -310 16 -210 -3 -286 -7 -309 -17 -31 -14
-33 -12 -263 137 -127 83 -234 148 -236 144 -11 -18 -3 -199 10 -224 17 -33
17 -38 1 -38 -12 0 -373 236 -402 261 -5 6 15 34 54 73 58 58 61 64 39 67 -12
2 -44 2 -69 -1 -38 -4 -56 -14 -107 -60 -34 -30 -66 -55 -71 -55 -5 0 -53 58
-107 129 l-97 129 32 62 c17 34 31 64 31 67 0 3 -30 5 -66 4 l-66 -1 -68 -98
-68 -98 -30 38 c-16 21 -61 80 -100 131 -77 102 -76 95 -32 181 11 22 20 44
20 48 0 5 -29 8 -65 8 l-65 0 -70 -172z m129 79 c-16 -31 -44 -73 -62 -92 -18
-19 -41 -46 -50 -60 -24 -35 -21 -12 8 56 32 73 40 92 53 126 7 16 20 28 34
30 44 7 46 -1 17 -60z m4005 44 c2 -6 23 -56 45 -111 l41 -100 -50 55 c-58 63
-116 166 -98 172 19 7 56 -3 62 -16z m-3916 -245 l89 -118 -33 -12 c-18 -7
-42 -14 -52 -16 -11 -2 -36 -8 -57 -14 -36 -10 -39 -8 -115 50 -88 68 -85 53
-20 129 12 14 36 42 53 63 17 20 35 37 39 37 4 0 47 -53 96 -119z m3903 100
c8 -11 38 -47 67 -80 l53 -60 -82 -64 -81 -64 -82 20 c-44 11 -82 21 -84 22
-7 5 174 244 184 245 6 0 18 -9 25 -19z m-3567 -64 c-17 -55 -46 -84 -105
-110 l-61 -26 18 27 c65 100 92 129 123 129 27 0 30 -3 25 -20z m3210 -41 c63
-89 63 -89 0 -61 -31 14 -58 25 -60 25 -5 0 -44 78 -44 88 0 5 14 9 31 9 26 0
37 -9 73 -61z m20 -197 c75 -102 87 -122 75 -133 -30 -28 -262 -206 -269 -206
-4 0 -28 45 -53 101 l-47 100 96 130 c53 71 99 129 102 129 4 -1 47 -55 96
-121z m-3303 94 c-5 -10 -18 -27 -28 -38 -10 -11 -39 -49 -65 -84 l-48 -64 4
39 c3 21 5 53 5 71 1 29 6 35 64 62 74 35 81 37 68 14z m159 -115 l92 -122
-53 -103 c-29 -57 -56 -103 -59 -103 -3 0 -45 32 -95 71 -49 39 -109 85 -132
102 -25 19 -40 38 -37 46 9 26 177 241 184 236 4 -3 49 -60 100 -127z m3183
96 c40 -21 43 -26 45 -75 1 -23 4 -45 8 -50 3 -5 1 -9 -3 -9 -5 0 -26 24 -48
53 -21 28 -50 67 -63 85 l-25 33 27 -10 c14 -6 41 -18 59 -27z m285 -205
l-123 -242 -105 -39 c-58 -22 -114 -44 -125 -49 -42 -19 -525 -206 -525 -203
0 1 66 54 148 116 81 62 154 118 162 125 8 7 143 112 300 233 157 122 300 233
319 248 50 40 66 51 69 52 1 0 -53 -109 -120 -241z m-3658 -128 c157 -122 294
-230 305 -239 11 -10 57 -46 103 -81 45 -35 81 -65 80 -67 -2 -1 -93 33 -203
77 -110 44 -265 105 -345 136 -80 31 -150 61 -157 67 -10 10 -233 443 -233
453 0 5 42 -27 450 -346z m-134 257 c-3 -29 -6 -66 -6 -81 l0 -29 -67 53 c-38
29 -72 56 -76 60 -7 5 114 45 147 48 4 1 6 -23 2 -51z m3680 23 c19 -5 38 -11
40 -14 3 -2 -23 -26 -58 -52 -70 -53 -70 -52 -81 41 l-6 52 35 -9 c19 -5 50
-13 70 -18z m-3056 -46 c0 -17 -79 -84 -100 -85 -43 -4 -42 -1 10 45 43 38 90
59 90 40z m2433 -45 l52 -50 -35 6 c-22 4 -51 22 -80 50 -45 44 -45 44 -17 44
20 0 43 -15 80 -50z m-2533 -76 c0 -4 -80 -83 -125 -124 -27 -24 -26 -23 10
45 20 39 39 72 40 75 4 6 75 10 75 4z m2625 -16 c2 -1 17 -32 34 -68 l32 -65
-71 70 c-38 38 -70 72 -70 76 0 6 68 -5 75 -13z m-2205 -250 c0 -5 -24 -46
-54 -91 -29 -45 -69 -108 -89 -139 -20 -32 -40 -58 -44 -58 -10 0 -407 308
-411 319 -1 5 48 58 109 119 l112 110 189 -126 c103 -69 188 -130 188 -134z
m2188 156 c56 -59 102 -109 102 -113 0 -7 -10 -15 -243 -195 -98 -76 -180
-136 -182 -134 -1 1 -41 67 -88 146 l-86 142 72 49 c259 176 312 211 318 211
3 0 51 -48 107 -106z m-1927 -45 c166 -107 239 -159 179 -129 -45 24 -355 222
-370 238 -31 31 17 4 191 -109z m1379 117 c0 -5 -57 -41 -270 -174 -183 -114
-149 -84 67 59 157 104 203 130 203 115z m-1408 -152 c84 -53 159 -102 166
-108 10 -10 0 -18 -46 -40 l-58 -28 -83 34 c-81 32 -84 34 -114 92 -29 56 -46
146 -27 146 5 0 78 -43 162 -96z m1403 53 c-2 -48 -57 -162 -84 -172 -9 -4
-46 -18 -82 -31 l-67 -24 -62 29 -62 30 68 43 c38 25 76 47 84 51 8 4 53 32
100 62 47 30 90 55 96 55 7 0 11 -16 9 -43z m-1540 -165 c13 -21 35 -34 86
-52 37 -12 66 -26 64 -30 -8 -13 -375 -163 -375 -154 0 3 37 63 83 134 90 142
110 157 142 102z m730 -271 c-10 -74 -13 -89 -35 -233 -12 -75 -22 -146 -23
-157 -1 -16 -30 -35 -119 -81 -83 -43 -120 -57 -123 -48 -2 7 -3 186 -2 397
l2 384 30 18 30 18 123 -126 124 -126 -7 -46z m137 187 l-112 -113 -112 113
-113 112 225 0 225 0 -113 -112z m213 -321 c0 -218 -1 -397 -3 -397 -1 0 -56
27 -122 60 -99 49 -120 64 -121 83 0 12 -2 30 -4 39 -2 9 -6 36 -9 60 -3 24
-8 57 -11 73 -8 51 -12 77 -25 173 l-13 92 124 125 123 124 30 -17 30 -18 1
-397z m547 333 c31 -52 66 -111 78 -131 l20 -37 -132 55 c-209 85 -238 98
-238 103 0 3 31 16 68 29 52 17 72 30 85 53 29 50 53 36 119 -72z m-1228 -123
c0 -106 -3 -198 -7 -204 -3 -5 -30 -9 -59 -8 -40 1 -67 -5 -110 -27 -32 -15
-58 -27 -59 -26 0 2 -2 10 -4 18 -1 8 -10 51 -19 95 -24 116 -26 126 -32 167
l-6 37 128 61 c71 33 136 64 144 69 8 6 17 10 20 10 3 1 5 -86 4 -192z m899
104 c59 -28 107 -54 107 -58 0 -15 -61 -307 -65 -311 -2 -2 -25 9 -52 25 -39
23 -60 28 -113 28 l-65 0 -1 195 c0 107 1 198 3 202 2 4 20 -2 41 -12 20 -11
85 -42 145 -69z m-529 -321 c3 -30 7 -64 10 -75 2 -11 10 -63 17 -115 13 -93
15 -98 106 -253 51 -88 93 -161 93 -163 0 -2 -108 -4 -240 -4 -132 0 -240 3
-240 6 0 3 32 60 72 127 101 172 115 204 123 272 3 33 13 96 21 140 7 44 14
93 14 110 0 48 18 15 24 -45z m-371 -42 c3 -10 2 -18 -1 -18 -12 1 -42 27 -37
32 12 11 34 3 38 -14z m747 2 c-29 -23 -41 -25 -37 -7 3 17 12 22 39 24 l23 2
-25 -19z m-815 -17 c22 -14 42 -27 43 -29 2 -1 -19 -26 -47 -56 l-50 -53 -54
27 c-47 23 -54 30 -53 55 2 23 11 33 51 55 28 15 55 28 60 28 6 0 28 -12 50
-27z m955 0 c51 -28 69 -63 45 -86 -7 -7 -31 -21 -54 -32 l-42 -19 -51 53
c-28 29 -46 56 -42 61 9 8 86 50 92 50 2 0 26 -12 52 -27z m-51 -173 c3 0 20
8 36 18 50 30 67 34 61 14 -3 -9 -8 -37 -11 -62 -3 -25 -8 -54 -10 -65 -2 -11
-4 -32 -4 -47 l-1 -28 -98 0 -98 0 0 146 1 145 58 -60 c33 -34 62 -61 66 -61z
m-836 -17 c-1 -71 -2 -134 -3 -140 0 -10 -26 -13 -95 -13 -88 0 -95 1 -96 20
-1 11 -2 23 -3 28 -1 4 -6 33 -10 66 -4 32 -10 69 -12 82 l-4 24 53 -26 54
-26 53 56 c29 31 56 56 59 56 3 0 5 -57 4 -127z m157 -222 l-82 -141 -84 0
-84 0 58 89 57 89 105 54 c58 30 107 53 109 52 2 -2 -34 -66 -79 -143z m584
-45 c31 -47 56 -88 56 -91 0 -3 -37 -5 -82 -3 l-82 3 -64 110 c-35 61 -73 125
-84 143 l-21 33 111 -55 110 -55 56 -85z m-788 30 c-18 -28 -44 -69 -57 -89
-25 -39 -58 -49 -60 -19 -1 19 -3 35 -13 109 l-8 52 86 0 86 0 -34 -53z m938
5 c-21 -155 -31 -162 -95 -64 -24 37 -49 78 -56 91 l-12 22 85 -2 84 -2 -6
-45z m-824 -190 c0 -22 19 -47 91 -120 67 -66 87 -91 73 -92 -65 -3 -254 -2
-257 2 -2 4 -109 218 -115 232 -2 4 44 7 102 7 l106 0 0 -29z m546 3 c-1 -18
-30 -53 -101 -123 l-100 -98 -60 3 -59 3 -98 98 c-72 72 -97 103 -96 120 l2
23 257 0 257 0 -2 -26z m184 -94 c-41 -82 -66 -120 -78 -121 -50 -3 -229 -4
-239 -1 -6 2 28 44 75 93 48 50 88 98 88 107 1 9 2 23 3 30 1 9 29 12 106 12
l105 0 -60 -120z m-552 -161 c-9 -24 -144 -197 -150 -191 -14 14 -98 184 -94
191 6 10 247 10 244 0z m250 -96 c43 -57 79 -108 80 -114 2 -5 -86 -9 -222 -9
l-226 0 28 39 c15 21 51 72 81 113 l55 74 64 0 64 1 76 -104z m222 100 c0 -7
-100 -203 -104 -203 -8 0 -146 192 -146 203 0 2 56 3 125 3 69 0 125 -1 125
-3z"/>
</g>
</svg>
